PathFileType	4	(X/Y/Z)	/Users/itak/Documents/Research/Walk-IL/dataset/trc/00002_00004.trc
DataRate	CameraRate	NumFrames	NumMarkers	Units	OrigDataRate	OrigDataStartFrame	OrigNumFrames
100.000000	100.000000	4	54	mm	100.000000	265	531
Frame#	Time	RPSI			LPSI			L3			STRN			T10			C7			CLAV			RBAK			LBAK			LSHO			LUPA			LAEL			LAOL			LWTS			LWPS			LFRA			LIFD			LHPS			LHTS			RSHO			RUPA			RAEL			RAOL			RWTS			RWPS			RFRA			RIFD			RHTS			RHPS			RBHD			LFHD			RFHD			LBHD			LHIP			RHIP			RASI			LASI			LKNE			LTHI			LANK			LTIP			LTOE			LMT1			LMT5			LHEE			RKNE			RTHI			RANK			RTIP			RTOE			RMT1			RMT5			RHEE			*53			
		X1	Y1	Z1	X2	Y2	Z2	X3	Y3	Z3	X4	Y4	Z4	X5	Y5	Z5	X6	Y6	Z6	X7	Y7	Z7	X8	Y8	Z8	X9	Y9	Z9	X10	Y10	Z10	X11	Y11	Z11	X12	Y12	Z12	X13	Y13	Z13	X14	Y14	Z14	X15	Y15	Z15	X16	Y16	Z16	X17	Y17	Z17	X18	Y18	Z18	X19	Y19	Z19	X20	Y20	Z20	X21	Y21	Z21	X22	Y22	Z22	X23	Y23	Z23	X24	Y24	Z24	X25	Y25	Z25	X26	Y26	Z26	X27	Y27	Z27	X28	Y28	Z28	X29	Y29	Z29	X30	Y30	Z30	X31	Y31	Z31	X32	Y32	Z32	X33	Y33	Z33	X34	Y34	Z34	X35	Y35	Z35	X36	Y36	Z36	X37	Y37	Z37	X38	Y38	Z38	X39	Y39	Z39	X40	Y40	Z40	X41	Y41	Z41	X42	Y42	Z42	X43	Y43	Z43	X44	Y44	Z44	X45	Y45	Z45	X46	Y46	Z46	X47	Y47	Z47	X48	Y48	Z48	X49	Y49	Z49	X50	Y50	Z50	X51	Y51	Z51	X52	Y52	Z52	X53	Y53	Z53	X54	Y54	Z54	

266	2.65	-705.9329833984375	1057.970825195312	-202.7654724121094	-719.7155151367188	1057.303466796875	-365.1246948242188	-715.875	1129.747680664062	-293.27783203125	-485.3761596679688	1315.51708984375	-301.7714538574219	-736.0859985351562	1274.011352539062	-302.802978515625	-680.2896118164062	1539.23095703125	-319.9552612304688	-524.8626098632812	1442.488647460938	-309.6776733398438	-738.2815551757812	1406.46240234375	-237.4805450439453	-697.5735473632812	1496.765380859375	-416.9615478515625	-593.4675903320312	1500.222778320312	-488.8327941894531	-626.1717529296875	1376.195068359375	-567.7279663085938	-635.8506469726562	1159.971923828125	-594.5167236328125	-696.4752807617188	1147.6669921875	-507.5874633789062	-545.1187744140625	909.7805786132812	-537.5237426757812	-621.1249389648438	892.882568359375	-581.2216796875	-622.7332763671875	1044.1123046875	-600.6699829101562	-509.8334655761719	728.8924560546875	-519.5538940429688	-583.8223266601562	805.2511596679688	-580.5930786132812	-519.4852905273438	818.579833984375	-552.9004516601562	-606.5331420898438	1526.651611328125	-144.0569458007812	-623.7637329101562	1456.771118164062	-70.41248321533203	-672.0062866210938	1191.284545898438	-42.35462188720703	-672.3397216796875	1160.674682617188	-138.3063049316406	-535.145751953125	935.84326171875	-63.98709487915039	-602.1204223632812	918.9930419921875	-1.538955450057983	-659.0938720703125	1115.072998046875	-24.68765449523926	-510.2450866699219	752.9368286132812	-77.11687469482422	-498.0910949707031	827.8172607421875	-45.43413162231445	-556.9232177734375	820.8629150390625	2.316319942474365	-610.4844360351562	1723.480346679688	-379.0538635253906	-441.9974060058594	1718.620727539062	-239.8401947021484	-431.9577331542969	1722.756713867188	-338.026123046875	-616.960693359375	1712.7314453125	-234.8712921142578	-629.718017578125	962.0929565429688	-479.7562255859375	-579.94384765625	955.0396118164062	-108.7758483886719	-487.7216796875	990.6575317382812	-191.0549468994141	-509.5112915039062	1008.034301757812	-425.0789489746094	-538.22265625	521.6177368164062	-421.0018615722656	-577.9090576171875	654.5878295898438	-461.4006958007812	-654.2998046875	34.16314315795898	-392.7714538574219	-624.2678833007812	282.3616333007812	-424.0703125	-442.2112731933594	40.77472305297852	-302.2647399902344	-502.8192749023438	51.92977905273438	-294.7003479003906	-527.8419799804688	34.02009201049805	-399.4551086425781	-727.5277099609375	45.55576324462891	-345.7605285644531	-463.297607421875	526.8087158203125	-134.9272766113281	-526.3208618164062	797.2584838867188	-110.2554016113281	-824.2896118164062	171.4460906982422	-149.1153564453125	-535.7491455078125	417.0751953125	-130.5531311035156	-629.7604370117188	48.01525497436523	-162.1578063964844	-677.746337890625	81.05630493164062	-200.5498962402344	-707.460693359375	90.35810089111328	-107.5393829345703	-864.8799438476562	197.9527435302734	-200.6631164550781	nan	nan	nan	
267	2.66	-698.7772827148438	1058.275146484375	-202.7838439941406	-713.480224609375	1057.64990234375	-365.0364074707031	-709.0586547851562	1130.018310546875	-293.4441833496094	-478.59375	1315.82080078125	-302.7704467773438	-729.3433227539062	1274.2392578125	-303.2263488769531	-673.4722290039062	1539.464477539062	-320.6392822265625	-518.1178588867188	1442.788208007812	-310.6222839355469	-731.376953125	1406.730712890625	-238.0274047851562	-690.9887084960938	1496.975708007812	-417.6112365722656	-587.02197265625	1500.45263671875	-489.6558837890625	-619.7700805664062	1376.48828125	-568.6305541992188	-628.9945068359375	1160.274780273438	-595.6915893554688	-689.6597290039062	1147.762817382812	-508.7999877929688	-537.4224243164062	910.4476928710938	-538.7969970703125	-613.2298583984375	893.2452392578125	-582.5160522460938	-615.43310546875	1044.463134765625	-601.8977661132812	-501.1559143066406	729.7628173828125	-520.7794189453125	-575.588134765625	805.7579345703125	-581.8798828125	-511.1282653808594	819.4725341796875	-554.1492919921875	-599.504150390625	1526.968505859375	-144.9013671875	-616.7039184570312	1457.173461914062	-71.20726013183594	-665.2761840820312	1191.755737304688	-42.96006393432617	-665.769775390625	1161.110961914062	-138.8777313232422	-527.7522583007812	936.6845703125	-64.93506622314453	-594.51416015625	919.5527954101562	-2.331418037414551	-652.1974487304688	1115.478881835938	-25.26749229431152	-502.129638671875	753.891357421875	-78.19097900390625	-490.1676940917969	828.8474731445312	-46.48847579956055	-548.9351806640625	821.6006469726562	1.330594182014465	-603.867431640625	1723.681884765625	-380.0597534179688	-435.484375	1718.993774414062	-240.6736755371094	-425.4101867675781	1723.133178710938	-338.8429870605469	-610.4653930664062	1712.96826171875	-235.8536224365234	-624.5014038085938	962.1806640625	-480.0167541503906	-571.913818359375	955.7630004882812	-109.5269088745117	-480.5911865234375	991.195068359375	-192.4739532470703	-503.6626281738281	1007.939880371094	-426.3692321777344	-537.5711669921875	521.1472778320312	-421.8468627929688	-575.7554931640625	654.4124145507812	-461.8661804199219	-654.3382568359375	34.14530563354492	-392.7384338378906	-624.384033203125	282.4238586425781	-424.3653259277344	-442.1792297363281	40.77949142456055	-302.4461059570312	-502.8586120605469	51.98562622070312	-294.8105773925781	-527.8150634765625	33.89990615844727	-399.6150817871094	-727.5028686523438	45.64037704467773	-345.7161254882812	-450.6974182128906	529.1322021484375	-137.0749206542969	-516.9337768554688	798.5506591796875	-111.1800918579102	-800.6360473632812	162.3132476806641	-150.3787231445312	-520.5839233398438	417.602783203125	-132.2962799072266	-601.1100463867188	46.87995910644531	-163.0239105224609	-650.5875244140625	77.6883544921875	-201.6750030517578	-680.638916015625	86.06552886962891	-108.662223815918	-842.3779296875	187.1263580322266	-201.9471740722656	nan	nan	nan	
268	2.67	-691.6315307617188	1058.466796875	-202.781005859375	-707.226806640625	1057.900146484375	-364.9220581054688	-702.24609375	1130.174682617188	-293.5808410644531	-471.805908203125	1315.976806640625	-303.7264404296875	-722.5799560546875	1274.35791015625	-303.6085510253906	-666.60546875	1539.588745117188	-321.2623291015625	-511.3573608398438	1442.938598632812	-311.5224609375	-724.4248657226562	1406.884399414062	-238.5138549804688	-684.3643798828125	1497.076782226562	-418.211181640625	-580.5289306640625	1500.556640625	-490.4306030273438	-613.3787841796875	1376.656616210938	-569.4785766601562	-622.2080688476562	1160.45654296875	-596.7911376953125	-682.9080810546875	1147.757690429688	-509.9364318847656	-529.7648315429688	911.0353393554688	-539.9500732421875	-605.3629760742188	893.5003662109375	-583.6783447265625	-608.206298828125	1044.695434570312	-603.0308227539062	-492.6262512207031	730.5376586914062	-521.879638671875	-567.3641967773438	806.1675415039062	-583.02001953125	-502.7046203613281	820.3635864257812	-555.2646484375	-592.4234619140625	1527.151123046875	-145.6923675537109	-609.5819702148438	1457.4365234375	-71.94336700439453	-658.4757080078125	1192.089599609375	-43.47273635864258	-659.1510009765625	1161.398559570312	-139.3555450439453	-520.398193359375	937.341552734375	-65.77403259277344	-586.9535522460938	919.9737548828125	-3.004804849624634	-645.2434692382812	1115.75927734375	-25.74756622314453	-494.1543273925781	754.6509399414062	-79.14390563964844	-482.3548583984375	829.6679077148438	-47.42527008056641	-541.0098876953125	822.1728515625	0.4777677059173584	-597.261474609375	1723.739868164062	-381.0103149414062	-428.9674682617188	1719.294799804688	-241.4830932617188	-418.8693237304688	1723.432250976562	-339.6275329589844	-603.9701538085938	1713.06591796875	-236.7867431640625	-619.240478515625	962.179443359375	-480.2296752929688	-563.9234008789062	956.36279296875	-110.2665023803711	-473.4489440917969	991.586181640625	-193.7908782958984	-497.7728271484375	1007.723510742188	-427.5502624511719	-536.7695922851562	520.650146484375	-422.5864868164062	-573.3887939453125	654.17822265625	-462.2290649414062	-654.3619995117188	34.16067504882812	-392.6691284179688	-624.3812255859375	282.4715270996094	-424.5792541503906	-442.1730651855469	40.74550247192383	-302.5614929199219	-502.879150390625	51.96878433227539	-294.8852233886719	-527.7872314453125	33.80863571166992	-399.7409362792969	-727.4395751953125	45.73504638671875	-345.6295166015625	-438.3787231445312	531.361572265625	-139.1623687744141	-507.6871032714844	799.7081298828125	-112.0574569702148	-776.395751953125	153.0459594726562	-151.5753479003906	-505.5502624511719	418.0337219238281	-133.9968719482422	-572.1761474609375	45.91970825195312	-164.0650177001953	-623.0424194335938	74.44609069824219	-202.9240875244141	-653.3162841796875	81.81859588623047	-109.8768768310547	-819.283203125	176.1253814697266	-203.1161956787109	nan	nan	nan	
269	2.68	-684.4912109375	1058.538208007812	-202.7558288574219	-700.9641723632812	1058.051025390625	-364.7803039550781	-695.4437866210938	1130.219848632812	-293.6813049316406	-465.0083312988281	1315.988403320312	-304.6359558105469	-715.7850341796875	1274.371215820312	-303.9474792480469	-659.70947265625	1539.604248046875	-321.8336181640625	-504.5794067382812	1442.94384765625	-312.3753051757812	-717.4322509765625	1406.9267578125	-238.9434967041016	-677.7045288085938	1497.06982421875	-418.7627868652344	-573.991943359375	1500.534423828125	-491.1570739746094	-606.9892578125	1376.69921875	-570.2688598632812	-615.4899291992188	1160.515625	-597.8091430664062	-676.2037963867188	1147.647583007812	-510.9864807128906	-522.1410522460938	911.5344848632812	-540.9802856445312	-597.532470703125	893.645751953125	-584.704833984375	-601.0554809570312	1044.808227539062	-604.0664672851562	-484.2404479980469	731.2037963867188	-522.863525390625	-559.1552124023438	806.4733276367188	-584.0143432617188	-494.2483520507812	821.2308349609375	-556.2550659179688	-585.303955078125	1527.20263671875	-146.4315032958984	-602.3994140625	1457.56201171875	-72.62119293212891	-651.5927734375	1192.283935546875	-43.90138244628906	-652.4522094726562	1161.53662109375	-139.7438049316406	-513.079345703125	937.8037109375	-66.50308990478516	-579.4402465820312	920.2521362304688	-3.561969757080078	-638.2210083007812	1115.9150390625	-26.13868713378906	-486.3377075195312	755.1976318359375	-79.96855163574219	-474.6619873046875	830.263916015625	-48.24396896362305	-533.1591186523438	822.5706176757812	-0.2383360862731934	-590.6539306640625	1723.656616210938	-381.900390625	-422.4393920898438	1719.52001953125	-242.2660064697266	-412.32177734375	1723.64892578125	-340.3791198730469	-597.4646606445312	1713.025268554688	-237.6728820800781	-613.93994140625	962.0965576171875	-480.4014282226562	-555.9774169921875	956.8260498046875	-110.9803466796875	-466.2928466796875	991.8323364257812	-195.0048828125	-491.8453979492188	1007.397766113281	-428.6212768554688	-535.7796020507812	520.1273803710938	-423.23193359375	-570.8499145507812	653.901123046875	-462.5137939453125	-654.3689575195312	34.20324325561523	-392.5694885253906	-624.238037109375	282.50439453125	-424.7259521484375	-442.1921691894531	40.67031860351562	-302.6117858886719	-502.8809509277344	51.89110565185547	-294.9309387207031	-527.7615356445312	33.74206924438477	-399.8394165039062	-727.3413696289062	45.84196472167969	-345.5062866210938	-426.3447265625	533.47998046875	-141.1809997558594	-498.5819396972656	800.7224731445312	-112.8797912597656	-751.5892944335938	143.7742767333984	-152.7028045654297	-490.642822265625	418.3842163085938	-135.6625671386719	-543.0531005859375	45.17689895629883	-165.2856140136719	-595.2056884765625	71.40000152587891	-204.2980499267578	-625.5786743164062	77.68934631347656	-111.1844635009766	-795.6182250976562	165.0796051025391	-204.1659851074219	nan	nan	nan	
